<?xml version="1.0" encoding="utf-8"?>
<!-- Generator: Adobe Illustrator 24.0.3, SVG Export Plug-In . SVG Version: 6.00 Build 0)  -->
<svg version="1.1" id="Слой_1" xmlns="http://www.w3.org/2000/svg" xmlns:xlink="http://www.w3.org/1999/xlink" 
	 viewBox="0 0 50 50" style="enable-background:new 0 0 50 50;" xml:space="preserve">
<title>geo</title>
<path fill="#fff" d="M25,40.9c-0.1-0.1-0.1-0.2-0.2-0.2c-3-4.7-5.9-9.6-8.5-14.6c-1.3-2.6-2.5-5.2-3.5-7.9c-1.5-4.2-0.2-9.7,2-12.4
	c1.8-2.3,4.1-3.7,6.9-4.4c3.1-0.7,6.1-0.5,9,0.9c3.4,1.6,5.5,4.4,6.5,8c0.4,1.4,0.5,2.9,0.5,4.4c0,1.2-0.3,2.3-0.7,3.4
	c-0.8,2.5-2,4.9-3.2,7.3c-2.4,4.8-5.2,9.4-8,14C25.6,39.9,25.3,40.4,25,40.9z M25,18.6c2.5,0,4.4-2,4.4-4.4c0-2.5-2-4.4-4.4-4.4
	c-2.4,0-4.4,2-4.4,4.4C20.5,16.6,22.5,18.6,25,18.6C25,18.6,25,18.6,25,18.6L25,18.6z"/>
<path fill="#fff" d="M19.3,33.5c-0.4,0.1-0.8,0.1-1.2,0.2c-2,0.3-4,0.8-5.9,1.7c-0.7,0.3-1.4,0.8-1.9,1.3C9,37.8,8.9,39.2,10,40.5
	c0.7,0.8,1.6,1.4,2.5,1.9c1.9,0.9,3.8,1.5,5.9,1.9c3.2,0.6,6.5,0.7,9.7,0.5c2.2-0.2,4.4-0.5,6.5-1.2c1.6-0.5,3.1-1.1,4.4-2
	c0.5-0.4,1-0.9,1.4-1.4c0.7-1.2,0.6-2.3-0.3-3.3c-0.7-0.7-1.5-1.2-2.4-1.6c-1.8-0.8-3.7-1.2-5.6-1.5c-0.4-0.1-0.8-0.1-1.2-0.2
	c0,0,0,0,0,0c0.2-0.2,0.4-0.5,0.7-0.7c0,0,0.1,0,0.2,0c2.7,0.3,5.4,0.7,8,1.8c1.1,0.5,2.2,1.1,3.1,2c1.8,1.8,2,4.3,0.6,6.4
	c-0.8,1.2-1.8,2-3,2.7c-1.9,1.2-4,1.9-6.2,2.4c-4.3,1-8.7,1.2-13.1,0.8c-2.8-0.2-5.5-0.8-8.1-1.7c-1.7-0.6-3.3-1.4-4.7-2.6
	c-1-0.8-1.8-1.8-2.2-3c-0.6-2,0-3.8,1.5-5.2c1.1-1,2.5-1.7,3.9-2.2c2.2-0.8,4.6-1.2,6.9-1.4c0.1,0,0.2,0,0.2,0.1
	C18.8,33,19,33.2,19.3,33.5z"/>
</svg>
